<svg xmlns="http://www.w3.org/2000/svg" viewBox="0 0 800 500">
  <!-- Achtergrond -->
  <rect width="800" height="500" fill="#f5f5f5"/>
  
  <!-- Schaakbord patroon op de vloer -->
  <g transform="translate(150, 350)">
    <!-- Schaakbord -->
    <rect width="500" height="150" fill="#ffecb3"/>
    
    <!-- Donkere vakken -->
    <rect x="0" y="0" width="62.5" height="37.5" fill="#8d6e63"/>
    <rect x="125" y="0" width="62.5" height="37.5" fill="#8d6e63"/>
    <rect x="250" y="0" width="62.5" height="37.5" fill="#8d6e63"/>
    <rect x="375" y="0" width="62.5" height="37.5" fill="#8d6e63"/>
    
    <rect x="62.5" y="37.5" width="62.5" height="37.5" fill="#8d6e63"/>
    <rect x="187.5" y="37.5" width="62.5" height="37.5" fill="#8d6e63"/>
    <rect x="312.5" y="37.5" width="62.5" height="37.5" fill="#8d6e63"/>
    <rect x="437.5" y="37.5" width="62.5" height="37.5" fill="#8d6e63"/>
    
    <rect x="0" y="75" width="62.5" height="37.5" fill="#8d6e63"/>
    <rect x="125" y="75" width="62.5" height="37.5" fill="#8d6e63"/>
    <rect x="250" y="75" width="62.5" height="37.5" fill="#8d6e63"/>
    <rect x="375" y="75" width="62.5" height="37.5" fill="#8d6e63"/>
    
    <rect x="62.5" y="112.5" width="62.5" height="37.5" fill="#8d6e63"/>
    <rect x="187.5" y="112.5" width="62.5" height="37.5" fill="#8d6e63"/>
    <rect x="312.5" y="112.5" width="62.5" height="37.5" fill="#8d6e63"/>
    <rect x="437.5" y="112.5" width="62.5" height="37.5" fill="#8d6e63"/>
  </g>
  
  <!-- Schaakstukken op de achtergrond (gestileerd) -->
  <g transform="translate(200, 180)">
    <!-- Toren -->
    <rect x="-20" y="-60" width="40" height="60" fill="#263238"/>
    <rect x="-25" y="-70" width="50" height="10" fill="#263238"/>
    <rect x="-25" y="-70" width="10" height="20" fill="#263238"/>
    <rect x="15" y="-70" width="10" height="20" fill="#263238"/>
    <rect x="-5" y="-70" width="10" height="20" fill="#263238"/>
  </g>
  
  <g transform="translate(600, 150)">
    <!-- Paard -->
    <path d="M-20,0 C-20,-20 -10,-40 10,-40 C20,-40 25,-30 25,-20 C25,-10 15,0 10,0 Z" fill="#f5f5f5"/>
    <path d="M10,0 C10,-10 20,-15 20,-30 C20,-40 10,-45 0,-35 C-10,-45 -20,-30 -20,-20 C-20,-10 -15,0 -10,0 Z" fill="#f5f5f5"/>
    <path d="M0,-35 C0,-45 5,-50 15,-45 L20,-25 L15,-30" fill="#f5f5f5"/>
    <rect x="-25" y="0" width="50" height="10" fill="#f5f5f5"/>
    <rect x="-20" y="10" width="40" height="30" fill="#f5f5f5"/>
    <rect x="-25" y="40" width="50" height="10" fill="#f5f5f5"/>
  </g>
  
  <g transform="translate(400, 120)">
    <!-- Koningin -->
    <path d="M0,-60 L15,-45 L-15,-45 Z" fill="#263238"/>
    <circle cx="0" cy="-50" r="5" fill="#263238"/>
    <circle cx="0" cy="-50" r="3" fill="#455a64"/>
    <path d="M-20,-45 C-20,-30 -15,-25 0,-20 C15,-25 20,-30 20,-45 Z" fill="#263238"/>
    <rect x="-15" y="-20" width="30" height="20" fill="#263238"/>
    <rect x="-20" y="0" width="40" height="10" fill="#263238"/>
  </g>
  
  <!-- Alakazam (gestileerd) -->
  <g transform="translate(280, 320)">
    <!-- Lichaam -->
    <path d="M0,0 C-10,10 -5,40 0,50 C5,40 10,10 0,0" fill="#f9a825"/>
    <!-- Hoofd -->
    <ellipse cx="0" cy="-10" rx="15" ry="20" fill="#f9a825"/>
    <!-- Snor -->
    <path d="M0,0 C-20,-10 -40,0 -60,-10" stroke="#f9a825" stroke-width="3" fill="none"/>
    <path d="M0,0 C20,-10 40,0 60,-10" stroke="#f9a825" stroke-width="3" fill="none"/>
    <!-- Ogen -->
    <ellipse cx="-7" cy="-15" rx="3" ry="4" fill="#ffffff"/>
    <ellipse cx="7" cy="-15" rx="3" ry="4" fill="#ffffff"/>
    <ellipse cx="-7" cy="-15" rx="1" ry="2" fill="#000000"/>
    <ellipse cx="7" cy="-15" rx="1" ry="2" fill="#000000"/>
    <!-- Lepels -->
    <path d="M-15,-25 C-20,-35 -15,-45 -5,-40 C0,-35 -5,-25 -15,-25" fill="#d6d6d6"/>
    <path d="M15,-25 C20,-35 15,-45 5,-40 C0,-35 5,-25 15,-25" fill="#d6d6d6"/>
    <rect x="-20" y="-25" width="5" height="15" fill="#d6d6d6"/>
    <rect x="15" y="-25" width="5" height="15" fill="#d6d6d6"/>
  </g>
  
  <!-- Trainer (Imre) met geruite trui die bij schaakthema past -->
  <g transform="translate(380, 370)">
    <!-- Lichaam -->
    <rect x="-15" y="-15" width="30" height="40" rx="5" ry="5" fill="#455a64"/>
    
    <!-- Geruite trui patroon -->
    <line x1="-15" y1="-5" x2="15" y2="-5" stroke="#607d8b" stroke-width="1"/>
    <line x1="-15" y1="5" x2="15" y2="5" stroke="#607d8b" stroke-width="1"/>
    <line x1="-5" y1="-15" x2="-5" y2="25" stroke="#607d8b" stroke-width="1"/>
    <line x1="5" y1="-15" x2="5" y2="25" stroke="#607d8b" stroke-width="1"/>
    
    <!-- Hoofd -->
    <circle cx="0" cy="-25" r="10" fill="#ffdbac"/>
    <!-- Haren -->
    <path d="M-10,-25 C-5,-35 5,-35 10,-25" fill="#5d4037"/>
    <!-- Armen -->
    <path d="M-15,-5 L-30,10" stroke="#455a64" stroke-width="5" stroke-linecap="round"/>
    <path d="M15,-5 L30,10" stroke="#455a64" stroke-width="5" stroke-linecap="round"/>
    <!-- Benen -->
    <path d="M-7,25 L-10,50" stroke="#37474f" stroke-width="7" stroke-linecap="round"/>
    <path d="M7,25 L10,50" stroke="#37474f" stroke-width="7" stroke-linecap="round"/>
    <!-- Gezicht -->
    <line x1="-5" y1="-25" x2="-2" y2="-25" stroke="#5d4037" stroke-width="1"/>
    <line x1="5" y1="-25" x2="2" y2="-25" stroke="#5d4037" stroke-width="1"/>
    <path d="M-3,-22 C-1,-20 1,-20 3,-22" stroke="#5d4037" stroke-width="1" fill="none"/>
    <!-- Bril -->
    <circle cx="-4" cy="-25" r="3" fill="none" stroke="#263238" stroke-width="1"/>
    <circle cx="4" cy="-25" r="3" fill="none" stroke="#263238" stroke-width="1"/>
    <line x1="-1" y1="-25" x2="1" y2="-25" stroke="#263238" stroke-width="1"/>
  </g>
  
  <!-- Pikachu met schaakthema (heeft een kleine kroon op) -->
  <g transform="translate(520, 370)">
    <!-- Lichaam -->
    <ellipse cx="0" cy="0" rx="15" ry="12" fill="#fdd835"/>
    <!-- Kop -->
    <circle cx="0" cy="-15" r="12" fill="#fdd835"/>
    <!-- Oren -->
    <path d="M-10,-20 L-15,-35 L-5,-25" fill="#fdd835"/>
    <path d="M10,-20 L15,-35 L5,-25" fill="#fdd835"/>
    <path d="M-10,-20 L-15,-35 L-5,-25" stroke="#fdd835" stroke-width="1"/>
    <path d="M10,-20 L15,-35 L5,-25" stroke="#fdd835" stroke-width="1"/>
    <rect x="-15" y="-37" width="5" height="5" fill="#5d4037"/>
    <rect x="10" y="-37" width="5" height="5" fill="#5d4037"/>
    <!-- Staart -->
    <path d="M15,0 C20,-5 30,0 35,-10" stroke="#fdd835" stroke-width="5" stroke-linecap="round"/>
    <!-- Poten -->
    <path d="M-10,10 L-15,15" stroke="#fdd835" stroke-width="4" stroke-linecap="round"/>
    <path d="M10,10 L15,15" stroke="#fdd835" stroke-width="4" stroke-linecap="round"/>
    <!-- Gezicht -->
    <circle cx="-5" cy="-18" r="2" fill="#5d4037"/>
    <circle cx="5" cy="-18" r="2" fill="#5d4037"/>
    <ellipse cx="0" cy="-13" rx="2" ry="1" fill="#5d4037"/>
    <path d="M-8,-12 C-6,-10 -4,-10 -2,-12" stroke="#ff5252" stroke-width="1" fill="none"/>
    <path d="M8,-12 C6,-10 4,-10 2,-12" stroke="#ff5252" stroke-width="1" fill="none"/>
    <!-- Kroon (zoals een schaak-koning) -->
    <path d="M-6,-32 L-4,-28 L-2,-32 L0,-28 L2,-32 L4,-28 L6,-32" fill="none" stroke="#ffb300" stroke-width="1.5"/>
    <rect x="-6" y="-32" width="12" height="2" fill="#ffb300"/>
  </g>
  
  <!-- Strategische lijnen op de achtergrond (zoals schaakstrategieën) -->
  <g opacity="0.15">
    <path d="M250,150 L400,300 L550,150" stroke="#263238" stroke-width="2" fill="none" stroke-dasharray="5,5"/>
    <path d="M200,250 L600,250" stroke="#263238" stroke-width="2" fill="none" stroke-dasharray="5,5"/>
    <path d="M300,100 L300,400" stroke="#263238" stroke-width="2" fill="none" stroke-dasharray="5,5"/>
    <path d="M500,100 L500,400" stroke="#263238" stroke-width="2" fill="none" stroke-dasharray="5,5"/>
  </g>
  
  <!-- Utrecht skyline (gestileerd) -->
  <g transform="translate(0, 170)">
    <rect x="300" y="0" width="15" height="80" fill="#b0bec5" opacity="0.5"/>
    <polygon points="300,0 315,0 307.5,-30" fill="#b0bec5" opacity="0.5"/>
    <rect x="290" y="80" width="35" height="10" fill="#b0bec5" opacity="0.5"/>
    <rect x="220" y="60" width="30" height="30" fill="#b0bec5" opacity="0.5"/>
    <polygon points="220,60 250,60 235,40" fill="#b0bec5" opacity="0.5"/>
    <rect x="350" y="70" width="40" height="20" fill="#b0bec5" opacity="0.5"/>
    <rect x="370" y="50" width="10" height="20" fill="#b0bec5" opacity="0.5"/>
    <rect x="400" y="65" width="25" height="25" fill="#b0bec5" opacity="0.5"/>
    <rect x="435" y="55" width="35" height="35" fill="#b0bec5" opacity="0.5"/>
    <polygon points="435,55 470,55 452.5,35" fill="#b0bec5" opacity="0.5"/>
  </g>
  
  <!-- Verbindingslijn -->
  <path d="M380,370 C430,350 470,350 520,370" stroke="#ffcc00" stroke-width="3" stroke-dasharray="5,5" opacity="0.8"/>
  
  <!-- Enkele kleine schaakpionnen verspreid over het veld -->
  <g transform="translate(180, 380)">
    <path d="M0,0 C-5,-5 -5,-15 0,-20 C5,-15 5,-5 0,0" fill="#263238" opacity="0.7"/>
    <rect x="-5" y="0" width="10" height="5" fill="#263238" opacity="0.7"/>
  </g>
  
  <g transform="translate(620, 390)">
    <path d="M0,0 C-5,-5 -5,-15 0,-20 C5,-15 5,-5 0,0" fill="#f5f5f5" opacity="0.7"/>
    <rect x="-5" y="0" width="10" height="5" fill="#f5f5f5" opacity="0.7"/>
  </g>
  
  <g transform="translate(470, 405)">
    <path d="M0,0 C-5,-5 -5,-15 0,-20 C5,-15 5,-5 0,0" fill="#f5f5f5" opacity="0.7"/>
    <rect x="-5" y="0" width="10" height="5" fill="#f5f5f5" opacity="0.7"/>
  </g>
  
  <g transform="translate(250, 410)">
    <path d="M0,0 C-5,-5 -5,-15 0,-20 C5,-15 5,-5 0,0" fill="#263238" opacity="0.7"/>
    <rect x="-5" y="0" width="10" height="5" fill="#263238" opacity="0.7"/>
  </g>
</svg>
